Patient4_TMGait_0pt2_03_right_15_EMG.mot
version=1
nRows=26
nColumns=33
inDegrees=no
endheader
time	1LAddLong	2LGlutMax	3LGlutMed	4LIliopsoas	5LSemiMemb	6LBicFemLong	7LRecFem	8LVastMed	9LVastLat	10LGasMed	11LTibAnt	12lTibPost	13LPeroneusLong	14LSol	15LExtDigLong	16LFlexDigLong	17RAddLong	18RGlutMax	19RGlutMed	20RIliopsoas	21RSemiMemb	22RBicFemLong	23RRecFem	24RVastMed	25RVastLat	26RGasMed	27RTibAnt	28RTibPost	29RPeroneusLong	30RSol	31RExtDigLong	32RFlexDigLong
34.495	-0.033417	-0.015869	0.13062	-0.004272	-0.018768	0.092621	0.24109	0.016937	-0.27496	0.006561	0.019073	-0.001373	-0.22507	0.22034	0.045929	0.009766	-0.021667	-0.036774	-0.35156	0.28503	0.11215	0.089569	-0.28686	0.006256	0.053253	-0.001984	0.23407	-0.005035	-0.028076	0.080719	0.001984	0.001373
34.496	-0.018463	0.015869	0.014496	-0.010681	-0.065155	0.083466	0.060425	0.012817	-0.15381	-0.023041	-0.011292	-0.001068	0.54413	0.24796	0.052948	-0.003815	0.014496	-0.013123	-0.037537	0.31586	0.12314	0.10529	-0.27771	0.024872	0.047302	0.000153	0.23086	-0.005341	-0.029449	0.10819	-0.001678	-0.005493
34.497	-0.011292	0.018921	-0.048828	-0.00061	-0.070648	0.026703	-0.11169	-0.011597	0.063934	-0.060425	-0.026398	0.002289	-0.043182	0.20477	0.054932	0.004578	0.005188	-0.026398	0.43533	0.065765	0.10712	0.10925	-0.22812	0.000305	0.048218	-0.00061	0.31586	-0.010834	-0.1268	0.074463	-0.002747	-0.00885
34.498	0.020294	0.009918	0.062561	-0.009613	-0.062256	0.009155	-0.13992	-0.006714	0.1004	-0.047607	-0.032349	0.001831	0.09613	0.21957	-0.029602	-0.00946	0.00412	0.084686	0.60043	-0.02121	0.075684	0.090637	-0.28229	0.020905	0.055847	0.000458	0.20233	-0.004883	-0.10819	0.00351	0	-0.001984
34.499	0.035248	0.026703	0.14954	0.012054	0.05188	-0.041046	-0.18845	-0.007935	0.10437	0.003357	-0.034637	-0.011749	0.068512	0.050659	-0.17044	-0.009003	-0.002136	0.056	-0.14358	-0.028992	0.063629	0.048218	-0.32227	0.034027	0.080566	0.002136	-0.074768	-0.003357	-0.10117	-0.053558	-0.00061	-0.005188
34.5	0.053101	0.032349	0.039825	0.018616	0.053253	0.02182	-0.21301	-0.01358	0.1236	0.00351	-0.052185	0.005493	-0.058899	0.043945	-0.066376	0.000916	-0.031128	0.006409	-0.43274	0.046692	0.058594	0.045319	-0.3038	0.027313	0.063324	0.000916	-0.19775	-0.002441	0.019836	-0.055695	0.001526	-0.009155
34.501	0.022278	0.031738	-0.037537	0.025787	0.042572	0.10544	-0.10269	-0.010834	0.044556	-0.036469	-0.06073	0.001526	0.1796	0.033875	0.000305	-0.004883	-0.076904	0.014954	-0.17471	0.04425	0.066681	0.000305	-0.26916	0.003815	0.07309	0.00061	0.077362	-0.006561	0.13443	0.063629	0.001068	-0.007324
34.502	0.015411	0.003967	-0.030823	-0.009308	0.049133	0.039368	-0.06012	0.001678	-0.070953	-0.036621	-0.046387	0.006409	0.12238	0.010223	0.013123	0.003357	-0.079193	0.024719	-0.17227	-0.003662	0.063019	-0.03067	-0.25848	-0.022278	0.04776	-0.003815	0.027618	-0.006866	0.034027	0.04364	0.000763	-0.006714
34.503	0.012512	0.010223	0.030518	-0.009918	0.046387	0.013885	-0.022888	0.005951	-0.053711	-0.016785	-0.035248	0.011139	0.099792	0.001831	-0.063782	0.000458	-0.083008	0.022888	0.48538	-0.08728	0.093536	-0.028992	-0.22751	-0.027771	0.051575	-0.000763	-0.0177	-0.000916	0.006256	-0.005341	0.000916	-0.012207
34.504	0.009155	0.000305	-0.00473	0.006409	0.031586	-0.020294	0.033875	0.010376	0.023499	-0.034943	0.023041	0.004578	0.070038	-0.036926	-0.11078	-0.002899	-0.058136	0.02243	0.51376	-0.11017	0.093536	-0.044556	-0.19379	-0.021515	0.047913	-0.000458	0.005646	-0.006256	0.016022	-0.014648	0.000305	-0.005341
34.505	0.005341	0.014038	-0.13412	0.010681	0.015717	-0.088654	0.0354	0.011292	0.11368	-0.04776	0.1294	0.009918	-0.053558	-0.020142	-0.049896	0.007629	0.026093	-0.023346	-0.18662	-0.064697	0.081024	-0.083313	-0.21683	-0.06073	0.044098	-0.010681	0.009766	-0.002747	-0.036774	-0.000763	0.002136	-0.007935
34.506	0.016632	-0.024872	-0.097504	-0.020142	-0.001526	-0.036621	0.10254	0.019684	0.10986	-0.02533	0.10193	0.006104	-0.019989	-0.046997	0.055237	0.002899	0.031738	-0.068512	-0.23514	-0.05188	0.059204	-0.007172	-0.14511	-0.025177	0.020294	-0.007019	0.051575	-0.001984	-0.054779	-0.097656	-0.001221	0.007935
34.507	0.021667	-0.048981	-0.22339	-0.017242	-0.003967	0.088043	0.19348	0.020905	0.10162	-0.01358	0.061798	0.008545	0.003662	0.025024	0.065002	0.003967	-0.004272	-0.13184	-0.20065	-0.018768	0.057068	0.025787	-0.11765	-0.092316	0.011139	-0.006256	0.26367	-0.002289	-0.07843	-0.16632	0.001221	0.004425
34.508	0.020599	0.048981	-0.28519	-0.016785	0.020905	0.10681	0.2211	-0.009308	0.077667	-0.042725	0.051117	0.006866	0.069885	0.034485	0.038605	-0.005188	-0.003204	-0.12817	-0.29022	-0.005188	0.053711	0.005035	-0.063629	-0.089874	0.023651	-0.00946	0.37491	-0.001984	-0.046997	-0.048218	0.004272	0.00061
34.509	0.02243	0.15076	-0.20264	0.007324	0.048523	0.097656	0.16724	-0.02121	0.039825	-0.041962	0.005951	0.010986	0.22507	0.0177	0.035858	0.005798	0.015106	-0.11078	-0.16312	-0.000305	0.070343	-0.023499	-0.057068	-0.089874	0.02533	0.000763	0.39887	0.001984	0.10971	-0.09964	0.001526	-0.002441
34.51	0.022583	0.14893	-0.16586	0.021057	0.025024	0.11795	0.13001	-0.02533	0.082092	0.016479	0.016632	0.010834	0.29434	0.038147	0.081482	0.003357	0.029755	-0.10407	-0.14984	0.055237	0.088348	-0.002136	-0.061188	-0.055084	0.009308	0.006561	0.32394	-0.001831	0.088501	-0.13504	0.002289	0.002441
34.511	0.011444	0.14267	0.085144	0.007629	0.009918	0.11673	0.072479	-0.002899	0.088348	0.029297	0.022736	0.005798	-0.012817	0.079651	0.10742	0.006409	0.036011	-0.055695	-0.23483	-0.025024	0.10162	0.052032	-0.060883	-0.10147	0.013275	0.000305	0.024414	0.000458	0.11246	-0.025482	-0.001984	0.004425
34.512	0.01358	0.12436	0.12726	0.012054	-0.027313	0.12192	0.020599	0.026855	0.12146	0.024261	0.013123	0.018311	0.11475	0.054321	0.08316	0.015106	0.024567	-0.07782	-0.39963	-0.10529	0.066376	0.07431	-0.02655	-0.089722	0.028992	-0.00412	-0.11978	-0.00351	0.12268	0.014648	0.001221	-0.001373
34.513	0.015869	0.1239	-0.065155	0.011749	-0.022125	0.067139	-0.055389	0.04837	0.14999	0.03067	-0.001068	0.010681	-0.15381	0.040283	0.029297	0.011749	0.013885	-0.10193	-0.66727	-0.078583	0.031433	0.095367	-0.078888	-0.08316	0.037689	-0.005035	-0.2681	-0.003357	0.2066	0.016937	-0.00061	-0.005951
34.514	0.006714	0.11368	-0.34866	0.008698	-0.024719	-0.004425	0.003357	0.080719	0.1828	0.04715	0.002136	0.004272	-0.34302	-0.007629	-0.023193	-0.003662	-0.022278	-0.10605	-0.4216	-0.008545	-0.009766	0.15198	-0.13855	-0.068817	0.040436	-0.011292	-0.050354	-0.004272	0.066986	0.063629	0.002747	-0.003815
34.515	0.010376	0.059509	-0.50079	0.028381	0.023193	-0.11337	0.14023	0.04425	0.13428	0.053406	0.010986	0.005951	-0.168	-0.16769	-0.13199	-0.032654	-0.003662	-0.031433	0.009308	-0.18417	-0.023499	0.14282	-0.11169	-0.12863	0.038757	-0.012817	0.27603	-0.000916	-0.103	0.013428	-0.005493	-0.006256
34.516	0.007782	0.048218	-0.32242	0.026245	0.028992	-0.031433	0.22598	0.016632	0.042877	0.052643	0.023956	0.000458	-0.21896	-0.046997	-0.076141	-0.00946	-0.012207	0.042267	-0.39658	-0.23605	-0.016479	0.13611	-0.11673	-0.078735	0.038757	-0.007324	0.53528	-0.001678	-0.065155	-0.038147	-0.00061	-0.010986
34.517	0.002899	0.029297	0.22995	0.014648	0.035858	-0.15427	0.18295	0.014496	0.06012	0.04837	0.019226	0.00351	0.009613	0.0177	-0.036774	0.014648	-0.000153	0.063019	-0.15289	-0.19592	0.018158	0.14587	-0.092773	-0.038452	0.049744	0.000458	0.58273	-0.003967	0.103	-0.079803	-0.002441	-0.004578
34.518	0.000305	-0.06424	0.033875	0.007019	0.032196	-0.19684	0.031891	0.004578	0.1416	0.076294	-0.009003	-0.020447	0.085449	0.14236	-0.009766	-0.01236	0.002899	0.024109	-0.23071	-0.043488	0.03418	0.089264	-0.12375	0.004272	0.039215	0.013123	0.11002	-0.003204	0.04715	-0.097351	0.001984	-0.006104
34.519	-0.003815	-0.13107	-0.1741	-0.013733	0.01236	-0.11688	-0.13855	0.011139	0.2713	0.062866	-0.00351	0.033875	0.36575	0.29633	0.041199	-0.050964	0.015564	0.050354	0.21316	-0.056	0.083466	-0.025482	-0.10544	0.014648	0.039063	0.011139	0.27603	-0.002594	-0.092773	-0.15259	-0.000305	-0.006561
34.52	0.004578	-0.17319	-0.011139	-0.002747	-0.014343	-0.063171	-0.31998	0.015717	0.16708	0.047302	-0.021515	0.02594	-0.031281	-0.092468	0.034485	-0.042267	0.031433	0.052795	0.53299	-0.082703	0.1294	-0.094299	-0.10468	0.047302	0.049744	0.012054	0.18539	-0.008545	-0.28671	-0.14725	-0.001068	-0.003357
